<?xml version="1.0" standalone="no"?>
<!DOCTYPE svg PUBLIC "-//W3C//DTD SVG 20010904//EN"
 "http://www.w3.org/TR/2001/REC-SVG-20010904/DTD/svg10.dtd">
<svg version="1.0" xmlns="http://www.w3.org/2000/svg"
 width="150.000000pt" height="50.000000pt" viewBox="0 0 150.000000 50.000000"
 preserveAspectRatio="xMidYMid meet">

<g transform="translate(0.000000,50.000000) scale(0.100000,-0.100000)"
fill="#000000" stroke="none">
<path d="M117 302 c-64 -64 -117 -124 -117 -133 0 -16 80 -99 96 -99 15 0 125
115 117 123 -3 4 -19 -4 -33 -18 -24 -23 -28 -24 -40 -11 -7 9 -10 22 -7 31 9
23 -9 26 -28 5 -17 -19 -17 -20 5 -38 25 -20 22 -48 -5 -59 -16 -6 -88 54 -83
69 2 4 50 55 107 113 l105 106 60 -60 61 -61 -54 -54 c-33 -33 -51 -59 -46
-66 5 -8 26 6 64 44 l57 56 39 -40 39 -40 -39 -40 c-21 -22 -35 -40 -29 -40 5
0 29 19 52 43 l42 43 -123 122 -122 122 -118 -118z"/>
<path d="M220 289 c0 -14 5 -19 17 -17 26 5 29 38 4 38 -15 0 -21 -6 -21 -21z"/>
<path d="M623 279 c-39 -11 -56 -39 -56 -93 0 -31 6 -45 27 -63 32 -27 100
-32 110 -8 4 12 -3 15 -34 15 -22 0 -45 7 -54 16 -19 18 -21 75 -4 92 20 20
55 14 61 -9 9 -33 32 -17 32 22 0 29 -4 34 -25 36 -14 1 -40 -3 -57 -8z"/>
<path d="M870 196 c0 -91 1 -96 21 -96 20 0 21 4 17 50 -3 28 -2 50 1 50 4 0
17 -20 29 -45 12 -25 28 -45 37 -45 8 0 24 19 37 43 20 40 22 41 28 18 3 -14
11 -26 18 -29 9 -3 12 17 12 72 0 98 -17 100 -59 6 -17 -38 -33 -70 -36 -70
-3 0 -20 30 -38 67 -19 39 -40 69 -50 71 -15 3 -17 -7 -17 -92z"/>
<path d="M1090 270 c0 -17 7 -20 45 -20 38 0 45 -3 45 -20 0 -17 -7 -20 -45
-20 l-45 0 0 -55 c0 -42 3 -55 15 -55 10 0 15 10 15 34 0 30 4 34 32 40 43 8
58 23 58 57 0 36 -32 59 -82 59 -31 0 -38 -4 -38 -20z"/>
<path d="M1328 213 l-3 -78 -30 0 c-30 0 -30 1 -33 58 -3 49 -6 58 -20 55 -26
-5 -24 -115 3 -134 27 -20 79 -18 98 4 23 25 25 172 2 172 -11 0 -15 -18 -17
-77z"/>
<path d="M1403 275 c-11 -8 -23 -23 -26 -34 -6 -25 19 -61 42 -61 10 0 25 -7
32 -16 11 -14 11 -18 -4 -29 -21 -15 -22 -35 -2 -35 21 0 48 45 40 69 -3 10
-24 26 -45 35 -43 17 -48 27 -25 46 13 10 19 9 35 -5 25 -22 47 -8 28 17 -19
24 -51 30 -75 13z"/>
<path d="M752 193 c-18 -47 -30 -88 -28 -91 13 -13 34 11 46 52 7 25 16 46 19
46 4 0 13 -21 20 -46 12 -40 34 -65 46 -53 4 4 -54 160 -64 171 -3 4 -21 -32
-39 -79z"/>
<path d="M342 163 c2 -10 10 -18 18 -18 8 0 16 8 18 18 2 12 -3 17 -18 17 -15
0 -20 -5 -18 -17z"/>
</g>
</svg>
