<?xml version="1.0" standalone="no"?>
<!DOCTYPE svg PUBLIC "-//W3C//DTD SVG 20010904//EN"
 "http://www.w3.org/TR/2001/REC-SVG-20010904/DTD/svg10.dtd">
<svg version="1.0" xmlns="http://www.w3.org/2000/svg"
 width="500.000000pt" height="500.000000pt" viewBox="0 0 500.000000 500.000000"
 preserveAspectRatio="xMidYMid meet">

<g transform="translate(0.000000,500.000000) scale(0.100000,-0.100000)"
fill="#000000" stroke="none">
<path d="M1220 2755 l-245 -245 105 -105 c58 -58 108 -105 112 -105 4 0 61 55
127 122 106 108 118 123 103 134 -15 11 -24 6 -62 -32 -50 -48 -68 -53 -93
-26 -21 23 -21 41 -1 63 14 16 15 20 2 33 -13 13 -20 10 -52 -23 l-36 -37 40
-39 c22 -21 40 -46 40 -55 0 -20 -51 -70 -71 -70 -16 0 -149 130 -149 145 0
12 412 425 424 425 15 0 426 -416 426 -431 0 -8 -29 -43 -65 -79 -51 -50 -62
-67 -53 -77 9 -12 28 3 100 74 l88 88 -242 242 c-134 134 -245 243 -248 243
-3 0 -115 -110 -250 -245z"/>
<path d="M1464 2780 c-32 -13 -38 -40 -15 -63 23 -24 47 -17 63 17 8 20 8 29
-2 41 -14 17 -16 17 -46 5z"/>
<path d="M2275 2731 c-100 -17 -149 -76 -149 -181 0 -120 59 -174 207 -186
l77 -7 0 37 0 36 -75 0 c-68 0 -77 2 -107 29 -30 27 -33 34 -33 90 0 77 28
110 99 118 l46 6 0 -42 c0 -40 1 -41 35 -41 l35 0 0 75 0 75 -47 -1 c-27 -1
-66 -4 -88 -8z"/>
<path d="M2740 2549 l0 -190 33 3 32 3 5 103 5 103 47 -95 c46 -92 49 -96 81
-96 32 0 35 4 77 90 24 50 48 90 52 90 4 0 8 -22 8 -50 0 -49 1 -50 30 -50
l30 0 0 141 0 140 -31 -3 c-37 -3 -32 4 -108 -158 l-59 -125 -68 142 c-68 140
-70 143 -101 143 l-33 0 0 -191z"/>
<path d="M3170 2705 l0 -35 78 0 c85 0 102 -8 102 -51 0 -34 -14 -39 -106 -39
l-74 0 0 -110 0 -110 35 0 35 0 0 74 0 73 61 7 c50 6 68 13 92 37 27 27 29 35
25 80 -8 83 -51 109 -180 109 l-68 0 0 -35z"/>
<path d="M3650 2607 c0 -156 -8 -177 -69 -177 -61 0 -71 19 -71 138 l0 102
-35 0 -35 0 0 -114 c0 -108 1 -116 26 -145 61 -72 199 -59 238 23 12 26 16 65
16 170 l0 136 -35 0 -35 0 0 -133z"/>
<path d="M3804 2726 c-43 -19 -64 -53 -64 -104 0 -50 30 -87 77 -97 78 -16
106 -59 59 -91 -18 -11 -26 -25 -26 -45 0 -27 2 -29 28 -23 44 11 70 33 82 69
22 67 -20 129 -96 141 -48 7 -70 30 -59 64 10 33 42 44 71 25 13 -8 24 -20 24
-25 0 -6 16 -10 34 -10 34 0 35 1 25 29 -22 63 -94 94 -155 67z"/>
<path d="M2498 2552 c-38 -98 -68 -181 -68 -185 0 -4 15 -7 33 -7 32 0 32 1
67 101 19 55 37 102 41 104 3 3 22 -42 41 -98 l35 -102 37 -3 36 -3 -24 63
c-85 224 -119 308 -125 308 -3 0 -36 -80 -73 -178z"/>
<path d="M1600 2585 c-93 -93 -103 -106 -89 -120 13 -13 26 -3 119 90 93 93
103 106 89 120 -13 13 -26 3 -119 -90z"/>
<path d="M1684 2505 c-13 -20 -14 -28 -4 -40 17 -21 43 -19 64 4 14 15 15 24
6 40 -15 28 -46 26 -66 -4z"/>
</g>
</svg>
